<?xml version="1.0" standalone="no"?>
<!DOCTYPE svg PUBLIC "-//W3C//DTD SVG 1.1//EN" "http://www.w3.org/Graphics/SVG/1.1/DTD/svg11.dtd" >
<svg>
<metadata>
Created by FontForge 20090914 at Sat Nov 28 09:55:19 2015
 By www-data
&#194;&#169; 1995 Scholars Press
</metadata>
<defs>
<font id="SPTiberian" horiz-adv-x="0" >
  <font-face 
    font-family="SPTiberian"
    font-weight="400"
    font-stretch="normal"
    units-per-em="2048"
    panose-1="0 0 4 0 0 0 0 0 0 0"
    ascent="1638"
    descent="-410"
    x-height="1504"
    bbox="-1379 -776.998 1310 2056.1"
    underline-thickness="15"
    underline-position="-111"
    unicode-range="U+0020-U+00A0"
  />
<missing-glyph horiz-adv-x="1024" 
d="M128 0v1448h768v-1448h-768zM256 128h512v1192h-512v-1192z" />
    <glyph glyph-name=".notdef" horiz-adv-x="1024" 
d="M128 0v1448h768v-1448h-768zM256 128h512v1192h-512v-1192z" />
    <glyph glyph-name="space" unicode=" " horiz-adv-x="716" 
 />
    <glyph glyph-name="exclam" unicode="!" horiz-adv-x="257" 
d="M107 0h-107v1422h107v-1422z" />
    <glyph glyph-name="quotedbl" unicode="&#x22;" 
d="M-449 -322c-46 1.33301 -69 24.001 -69 68.001c0 42.667 23 64 69 64c45.333 0 68 -22.333 68 -67s-22.667 -66.334 -68 -65.001zM-179 -321.999c-46 1.33301 -69 24.001 -69 68.001c0 42.667 23 64 69 64c45.333 0 68 -22.333 68 -67s-22.667 -66.334 -68 -65.001z" />
    <glyph glyph-name="numbersign" unicode="#" horiz-adv-x="1352" 
d="M162 747c19.333 -122.667 47.3359 -235.663 84.0029 -338.996c26.667 -74 47 -119.667 61 -137c72 115.333 147.333 281.333 226 498c83.333 227.333 125 350.666 125 369.999c-106.667 86.667 -160 132.334 -160 137.001c0 43.333 10.333 88.666 31 135.999
c23.333 54 50.333 84.667 81 92c0 -2 4.66699 -11.333 14 -28s15.666 -32 18.999 -46c6 -22 31.333 -35.667 76 -41c48 -6.66699 80.667 -30.334 98 -71.001c12 -26.667 18 -54.667 18 -84c0 -40.667 -10 -81.334 -30 -122.001c-16 -32 -28.333 -50.333 -37 -55
c-3.33301 14 -15.666 32 -36.999 54c-6 4.66699 -18 7 -36 7c0 -0.666992 -37 -117 -111 -349c-24 -76 -56.333 -161.667 -97 -257l-103 -241h600c59.333 8 115 83.667 167 227c56.667 155.333 90 344.666 100 567.999c1.33301 38 -19.334 61.333 -62.001 70l-128 18
c-49.333 14.667 -79 47.334 -89 98.001c-2.66699 10.667 -4 22 -4 34c0 42.667 11.333 86.334 34 131.001s48.667 73.667 78 87c0 1.33301 11.667 -24.334 35 -77.001c7.33301 -16.667 33.166 -28.334 77.499 -35.001s76.5 -32 96.5 -76c14 -30 21 -83.333 21 -160
c0 -124.667 -13.667 -260.334 -41 -407.001c-17.333 -96 -61.666 -247.333 -132.999 -454c-62 -178.667 -98.333 -277 -109 -295h-837c-4 32 -8.66699 83.667 -14 155c-4.66699 78 -24.334 176.333 -59.001 295c-34 113.333 -51.667 212.333 -53 297
c-2.66699 110.667 17 209 59 295l67 100c-81.333 0 -127.333 37.667 -138 113c-1.33301 8 -2 17.333 -2 28c0 44.667 8.33301 89.334 25 134.001c18.667 51.333 43 80.333 73 87c0 -1.33301 7 -10.5 21 -27.5s22.667 -32.5 26 -46.5
c5.33301 -21.333 31.5 -34.833 78.5 -40.5s78.833 -29.5 95.5 -71.5c9.33301 -23.333 14 -48 14 -74c0 -42.667 -11.667 -85.667 -35 -129c-19.333 -34.667 -34.333 -54 -45 -58c0 13.333 -9.66699 32.333 -29 57c-12.667 12.667 -34.334 19 -65.001 19l-29 -74
c-18.667 -58 -28 -120.667 -28 -188c0 -40 3.33301 -81.333 10 -124z" />
    <glyph glyph-name="dollar" unicode="$" 
d="M-174 1627c-58 0.666992 -87 28.667 -87 84c0 52.667 29 79 87 79c56 0 84 -27.333 84 -82s-28 -81.667 -84 -81z" />
    <glyph glyph-name="percent" unicode="%" 
d="M-575 649c-60.667 -2.66699 -91 24.667 -91 82c0 56.667 28.667 85.667 86 87c56.667 1.33301 85 -26 85 -82c0 -56.667 -26.667 -85.667 -80 -87z" />
    <glyph glyph-name="ampersand" unicode="&#x26;" 
d="M-1083 1634c-58 0.666992 -87 29 -87 85c0 52.667 29 79 87 79c55.333 0 83 -27.667 83 -83c0 -54.667 -27.667 -81.667 -83 -81z" />
    <glyph glyph-name="quotesingle" unicode="'" 
d="M-795 -322c-45.333 1.33301 -68 24.001 -68 68.001c0 42.667 22.667 64 68 64s68 -22.333 68 -67s-22.667 -66.334 -68 -65.001zM-525 -321.999c-46 1.33301 -69 24.001 -69 68.001c0 42.667 23 64 69 64s69 -22.333 69 -67s-23 -66.334 -69 -65.001z" />
    <glyph glyph-name="parenleft" unicode="(" horiz-adv-x="1352" 
d="M105 283l344.006 64.9961l-126 269c-8 18 -27 78 -57 180c-3.33301 10.667 -5 22.334 -5 35.001c0 44 18 101.333 54 172l55 95c-73.333 0 -122.333 22.667 -147 68c-12 22.667 -18 62.667 -18 120c0 128.667 21 201 63 217c0 -19.333 19 -42 57 -68
c8 -6 38 -9.33301 90 -10c61.333 -1.33301 106 -19.666 134 -54.999c25.333 -32 38 -75.333 38 -130c0 -42.667 -7.66699 -88.334 -23 -137.001c-12.667 -40.667 -22.667 -63 -30 -67c0 6 -6.66699 12.333 -20 19c-18.667 10 -31.834 18.833 -39.501 26.5
s-35.834 11.5 -84.501 11.5l-32 -83c-20.667 -60 -31 -113.333 -31 -160c0 -21.333 2.33301 -41 7 -59c8 -35.333 25.333 -79.333 52 -132c35.333 -71.333 75 -171 119 -299c15.333 0 80.666 9.66699 195.999 29c125.333 20.667 191 35.667 197 45
c55.333 82.667 99.666 182.334 132.999 299.001c29.333 104.667 43.666 199 42.999 283c-0.666992 38 -22.334 60.667 -65.001 68c-42 4.66699 -84.333 9.66699 -127 15c-48.667 12.667 -78 44.334 -88 95.001c-3.33301 16.667 -5 36.334 -5 59.001
c0 52.667 7.66699 103.667 23 153c16.667 54.667 38 87.667 64 99c0 -0.666992 5.33301 -7.66699 16 -21c12.667 -15.333 21.667 -29 27 -41c8 -18 35 -27 81 -27h13c76 0 124.333 -22.667 145 -68c10.667 -22.667 16 -59.667 16 -111c0 -126.667 -22.667 -283 -68 -469
c-43.333 -179.333 -73.666 -298 -90.999 -356c-44 -149.333 -84.667 -237 -122 -263c-42.667 -30.667 -341.334 -80.667 -896.001 -150c24 40.667 49 96 75 166c25.333 68 36.333 107 33 117z" />
    <glyph glyph-name="parenright" unicode=")" horiz-adv-x="1352" 
d="M184 868c-33.333 14 -65.0039 40.6738 -95.0039 80.0068c-52.667 70.667 -79.667 162.667 -81 276c0 62.667 16.667 120 50 172c32.667 50 65 73.667 97 71c5.33301 0 8.33301 -7.66699 9 -23c2.66699 -28 7.33398 -55.333 14.001 -82
c21.333 -82.667 110.666 -193.334 267.999 -332.001c140.667 -123.333 222 -185 244 -185l67 124c-15.333 0 -49.666 22 -102.999 66c-66 54.667 -99 109.667 -99 165c0 6.66699 0.666992 13.667 2 21c6.66699 43.333 27.667 91 63 143
c42.667 63.333 88.334 98.666 137.001 105.999c12.667 1.33301 19.667 -1 21 -7c-0.666992 2 -1 -8 -1 -30c-5.33301 -47.333 21.334 -91.333 80.001 -132l178 -112c71.333 -52 114.333 -113 129 -183c1.33301 -4.66699 2 -10.667 2 -18c0 -42 -12.667 -86 -38 -132
c-32 -58.667 -76.333 -97.334 -133 -116.001c-2.66699 -0.666992 -7.16699 -3.66699 -13.5 -9s-11.5 -8 -15.5 -8c-14 0 -29.667 35 -47 105c-38 65.333 -69 98 -93 98c-5.33301 0 -11.333 -2.66699 -18 -8v0c0.666992 3.33301 3.66699 15.666 9 36.999l-85 -144
c12 0 52.333 -25 121 -75c86 -62.667 156 -129.334 210 -200.001c73.333 -96.667 109 -191.334 107 -284.001c-2.66699 -112.667 -17.667 -188 -45 -226c-18 -24.667 -46.333 -35.334 -85 -32.001c-0.666992 0 -3.66699 17 -9 51c-6.66699 42.667 -19 82 -37 118
c-27.333 54 -66.666 100.333 -117.999 139c-105.333 80 -247 194.333 -425 343c-150 126 -226 189 -228 189c-62.667 -43.333 -94 -96.666 -94 -159.999c0 -34.667 10.667 -70 32 -106l167 -196c85.333 -103.333 125.666 -184 120.999 -242
c-3.33301 -44 -26.666 -79 -69.999 -105c-3.33301 -2 -28 -12.333 -74 -31h-288l14 32c1.33301 3.33301 5 5 11 5c32 1.33301 50.333 4.33301 55 9c1.33301 2 7.66602 20.667 18.999 56c3.33301 10 5 22 5 36c0 29.333 -13.667 89.666 -41 180.999
c-29.333 98 -46.666 175.333 -51.999 232c-7.33301 90 44.667 197.667 156 323z" />
    <glyph glyph-name="asterisk" unicode="*" horiz-adv-x="856" 
d="M419 20l-107.999 94.001c-28.667 27.333 -62.334 63.666 -101.001 108.999l208 192c52 -48.667 85.667 -81 101 -97s47.666 -53 96.999 -111l-94 -98c-23.333 -24 -57.666 -53.667 -102.999 -89z" />
    <glyph glyph-name="plus" unicode="+" horiz-adv-x="1352" 
d="M172 271l882.001 0.000976562c25.333 73.333 42.333 175 51 305c8 114 12 191.667 12 233c0 100 -21 164 -63 192c-37.333 25.333 -124 39.666 -260 42.999c-62.667 1.33301 -128 -26.667 -196 -84c-38.667 -32.667 -88.667 -86.334 -150 -161.001
c-48 -58.667 -78.667 -88.667 -92 -90c-4.66699 0 -7 2.33301 -7 7c0 12.667 35.333 78 106 196c76 128 122.333 221.667 139 281c40.667 146.667 63 220 67 220c27.333 2.66699 53.333 4 78 4c298.667 0 448 -212.333 448 -637c0 24.667 -5 -90.333 -15 -345
c-3.33301 -92.667 -44.333 -237.667 -123 -435h-1005c2 22.667 4.33301 66 7 130v617c0 110.667 15.667 205 47 283c16.667 41.333 33 70 49 86c-10 0 -28.333 9 -55 27c-37.333 26 -62.333 58.667 -75 98c-4.66699 14.667 -7 34.334 -7 59.001c0 46 7 89 21 129
c16.667 46 38.334 71 65.001 75c0 -24.667 15 -52 45 -82c1.33301 -2 44.666 -26 129.999 -72c75.333 -41.333 123.333 -81.666 144 -120.999c17.333 -32 26 -67.667 26 -107c0 -38.667 -7.66699 -77 -23 -115c-13.333 -32 -24.333 -49.333 -33 -52c0 5.33301 -8 13 -24 23
c-19.333 12 -32.333 23.333 -39 34c-4.66699 7.33301 -30.834 25.666 -78.501 54.999s-73.167 44 -76.5 44c-38 -76 -54.333 -197.333 -49 -364c2.66699 -87.333 10.667 -186 24 -296c12.667 -104.667 22.667 -164.667 30 -180z" />
    <glyph glyph-name="comma" unicode="," 
d="M-599 871c-60.667 -2.66699 -91 24.667 -91 82c0 56.667 28.667 85.667 86 87c56.667 1.33301 85 -26 85 -82s-26.667 -85 -80 -87z" />
    <glyph glyph-name="hyphen" unicode="-" horiz-adv-x="899" 
d="M0 1249v175h732v-175h-732z" />
    <glyph glyph-name="hyphen" unicode="&#x2010;" horiz-adv-x="899" 
d="M0 1249v175h732v-175h-732z" />
    <glyph glyph-name="period" unicode="." horiz-adv-x="855" 
d="M494 277c-22 -20.667 -46.001 -63.001 -72.001 -127.001c-23.333 58.667 -48.666 101 -75.999 127c-21.333 20.667 -59.333 41.667 -114 63c43.333 16.667 81.333 40.334 114 71.001c30 28 55.333 67.667 76 119c23.333 -57.333 50 -99.666 80 -126.999
c24 -22 60.667 -43 110 -63l-62 -25c-22 -10.667 -40.667 -23.334 -56 -38.001zM501.999 1010c-30 -26.667 -56.6641 -68.999 -79.9971 -126.999c-15.333 39.333 -25.333 63.666 -30 72.999c-12.667 24 -28 44.667 -46 62c-14 12.667 -52 31 -114 55
c30 12 50.667 20.667 62 26c19.333 10 36.666 22.333 51.999 37c28 26.667 53.333 69 76 127c16 -40 25.333 -62.667 28 -68c11.333 -22 26.166 -41.667 44.499 -59s57.5 -38.333 117.5 -63c-24.667 -10 -61.334 -31 -110.001 -63z" />
    <glyph glyph-name="slash" unicode="/" 
d="M-429 -601c-46 1.33301 -69 24.334 -69 69.001c0 42.667 23 64 69 64c45.333 0 68 -22.667 68 -68c0 -44.667 -22.667 -66.334 -68 -65.001zM-434 -356.999c-45.333 1.33301 -68 24.001 -68 68.001c0 42.667 22.667 64 68 64c46 0 69 -22.333 69 -67
s-23 -66.334 -69 -65.001zM-955 -327.998v108.002h328v-108h-129c13.333 -44.667 20 -97.334 20 -158.001c0 -77.333 -17.667 -116 -53 -116c-36.667 0 -55 37.333 -55 112c0 33.333 3.66699 69.666 11 108.999c6 35.333 10.667 53 14 53h-136z" />
    <glyph glyph-name="zero" unicode="0" 
d="M-588 1897l-318 -181l310 -205v99l-174 106l182 90v91z" />
    <glyph glyph-name="one" unicode="1" 
d="M-1134 655v108h410v-108h-161c2 0 6 -18.667 12 -56c6 -42.667 9 -82.667 9 -120c0 -97.333 -22.333 -146 -67 -146s-67 41.333 -67 124c0 40 5 84.333 15 133c8.66699 43.333 14.667 65 18 65h-169z" />
    <glyph glyph-name="two" unicode="2" 
d="M-388 1897l-318 -181l310 -205v99l-174 106l182 90v91z" />
    <glyph glyph-name="three" unicode="3" 
d="M-514 -608l-219 384l-244 -387h118l126 223l109 -220h110z" />
    <glyph glyph-name="four" unicode="4" 
d="M-164 -608l-219 384l-244 -387h118l126 223l109 -220h110z" />
    <glyph glyph-name="seven" unicode="7" 
d="M-836 342c-45.333 1.33301 -68 24.333 -68 69c0 42.667 22.667 64 68 64c46 0 69 -22.333 69 -67c0 -45.333 -23 -67.333 -69 -66zM-836 633c-45.333 1.33301 -68 24.333 -68 69c0 42.667 22.667 64 68 64c46 0 69 -22.333 69 -67s-23 -66.667 -69 -66z" />
    <glyph glyph-name="colon" unicode=":" 
d="M-367 -641c-45.333 1.33301 -68 24.333 -68 69c0 42.667 22.667 64 68 64s68 -22.333 68 -67c0 -45.333 -22.667 -67.333 -68 -66zM-367 -350c-45.333 1.33301 -68 24.333 -68 69c0 42.667 22.667 64 68 64s68 -22.333 68 -67c0 -45.333 -22.667 -67.333 -68 -66z" />
    <glyph glyph-name="semicolon" unicode=";" 
d="M-713 -641c-45.333 1.33301 -68 24.333 -68 69c0 42.667 22.667 64 68 64s68 -22.333 68 -67c0 -45.333 -22.667 -67.333 -68 -66zM-713 -350c-45.333 1.33301 -68 24.333 -68 69c0 42.667 22.667 64 68 64s68 -22.333 68 -67c0 -45.333 -22.667 -67.333 -68 -66z" />
    <glyph glyph-name="equal" unicode="=" 
d="M-770 299c-61.333 -2.66699 -92 24.667 -92 82c0 56.667 28.667 85.667 86 87s86 -26 86 -82c0 -56.667 -26.667 -85.667 -80 -87z" />
    <glyph glyph-name="question" unicode="?" 
d="M-84 -601c-45.333 1.33301 -68 24.334 -68 69.001c0 42.667 22.667 64 68 64c46 0 69 -22.667 69 -68c0 -44.667 -23 -66.334 -69 -65.001zM-88 -356.999c-45.333 1.33301 -68 24.001 -68 68.001c0 42.667 22.667 64 68 64s68 -22.333 68 -67
s-22.667 -66.334 -68 -65.001zM-559 -327.998v108.002h328v-108h-129c12.667 -44.667 19 -97.334 19 -158.001c0 -77.333 -17.333 -116 -52 -116c-36.667 0 -55 37.333 -55 112c0 33.333 3.66699 69.666 11 108.999c6 35.333 10.333 53 13 53h-135z" />
    <glyph glyph-name="at" unicode="@" 
d="M-770 649c-61.333 -2.66699 -92 24.667 -92 82c0 56.667 28.667 85.667 86 87s86 -26 86 -82c0 -56.667 -26.667 -85.667 -80 -87z" />
    <glyph glyph-name="A" unicode="A" 
d="M-666 -328v108h410v-108h-410z" />
    <glyph glyph-name="C" unicode="C" horiz-adv-x="1352" 
d="M379 -33l9.99707 -489.995c0.666992 -45.333 -6.33301 -94 -21 -146c-19.333 -69.333 -47 -104 -83 -104c-4.66699 0 -9.33398 0.333008 -14.001 1c-19.333 38 -28.666 68.333 -27.999 91c4.66699 324.667 16 853 34 1585c0.666992 12 9.83398 28.167 27.501 48.5
s26.5 39.166 26.5 56.499c0 12.667 -4 26.667 -12 42c-18.667 36 -68.167 57.5 -148.5 64.5s-130.5 33.5 -150.5 79.5c-9.33301 21.333 -14 46.666 -14 75.999c0 44.667 9.16699 90.5 27.5 137.5s39.166 78.833 62.499 95.5c0 -3.33301 9 -13 27 -29
c21.333 -18.667 35.333 -32.334 42 -41.001c9.33301 -12 36.666 -21 81.999 -27c50 -6 84.333 -15.333 103 -28c60.667 -40 91 -99.667 91 -179c0 -30.667 -4.66699 -64.167 -14 -100.5s-23.5 -72.5 -42.5 -108.5s-30.5 -60 -34.5 -72
c-16.667 -60.667 -24 -126.667 -22 -198l15 -576c8 21.333 28.333 135.333 61 342c29.333 190 58.666 305.667 87.999 347c36.667 52 88.334 104.333 155.001 157l163 122c-26.667 15.333 -47 59.666 -61 132.999c-2 10.667 -3 22 -3 34c0 41.333 11.333 82.166 34 122.499
s49 67.5 79 81.5c0 -3.33301 10 -14.333 30 -33c22 -20.667 35.333 -36.334 40 -47.001c6.66699 -15.333 35.334 -29 86.001 -41c48.667 -12 80.667 -42.333 96 -91c12.667 -43.333 19 -85.666 19 -126.999c0 -77.333 -22.667 -127 -68 -149l-87 92
c-7.33301 7.33301 -21.666 9.66602 -42.999 6.99902c-34.667 -4.66699 -52.667 -7 -54 -7l-172 -133c-77.333 -61.333 -135.666 -120.666 -174.999 -177.999c-34 -49.333 -60.333 -177 -79 -383c-19.333 -220 -43.666 -362.333 -72.999 -427z" />
    <glyph glyph-name="E" unicode="E" 
d="M-449 -322c-46 1.33301 -69 24.001 -69 68.001c0 42.667 23 64 69 64c45.333 0 68 -22.333 68 -67s-22.667 -66.334 -68 -65.001zM-192 -321.999c-46.667 1.33301 -70 24.001 -70 68.001c0 42.667 23.333 64 70 64c44 0 66 -22.333 66 -67s-22 -66.334 -66 -65.001z
M-322 -613.998c-45.333 1.33301 -68 24.333 -68 69c0 42.667 22.667 64 68 64s68 -22.333 68 -67c0 -45.333 -22.667 -67.333 -68 -66z" />
    <glyph glyph-name="F" unicode="F" 
d="M-566 -328v108h410v-108h-161c2.66699 0 6.66699 -18.667 12 -56c6.66699 -42.667 10 -82.667 10 -120c0 -97.333 -22.667 -146 -68 -146c-44 0 -66 41.333 -66 124c0 40 5 84.333 15 133c8.66699 43.333 14.667 65 18 65h-170z" />
    <glyph glyph-name="G" unicode="G" 
d="M-792 1586c-40 0 -72.333 13.3301 -97 39.9971c-22 24 -33 52.667 -33 86c0 32.667 10.667 60 32 82c24 24.667 56.667 37 98 37c39.333 0 70.666 -12.667 93.999 -38c21.333 -23.333 32 -51.666 32 -84.999s-10.667 -61.666 -32 -84.999
c-23.333 -25.333 -54.666 -37.666 -93.999 -36.999zM-792 1627c56 -0.666992 84 26.333 84 81s-28 82 -84 82c-58 0 -87 -26.333 -87 -79c0 -55.333 29 -83.333 87 -84z" />
    <glyph glyph-name="H" unicode="H" 
d="M-402 1586c-40.667 0 -73 13.3301 -97 39.9971c-22 24 -33 52.667 -33 86c0 32.667 10.667 60 32 82c23.333 24.667 56 37 98 37c39.333 0 70.666 -12.667 93.999 -38c21.333 -23.333 32 -51.666 32 -84.999s-10.667 -61.666 -32 -84.999
c-23.333 -25.333 -54.666 -37.666 -93.999 -36.999zM-402 1627c56 -0.666992 84 26.333 84 81s-28 82 -84 82c-58 0 -87 -26.333 -87 -79c0 -55.333 29 -83.333 87 -84z" />
    <glyph glyph-name="I" unicode="I" 
d="M-306 -322c-46.667 1.33301 -70 24.001 -70 68.001c0 42.667 23.333 64 70 64c44 0 66 -22.333 66 -67s-22 -66.334 -66 -65.001z" />
    <glyph glyph-name="J" unicode="J" 
d="M-148 -605c-36.667 1.33301 -55 24 -55 68c0 43.333 18.333 65 55 65c35.333 0 53 -22.333 53 -67c0 -45.333 -17.667 -67.333 -53 -66zM-146 -357c-37.333 1.33301 -56 24.001 -56 68.001c0 42.667 18.667 64 56 64c35.333 0 53 -22.333 53 -67
s-17.667 -66.334 -53 -65.001zM-614 -327.999v108h327v-108h-327z" />
    <glyph glyph-name="K" unicode="K" horiz-adv-x="1352" 
d="M1003 1111c21.333 -711.333 32.001 -1190 32.001 -1436c0 -118 -1 -232 -3 -342c-2 -73.333 -19 -110 -51 -110c-6 0 -12.667 1 -20 3c-4 0 -14.833 14.5 -32.5 43.5s-26.5 51.5 -26.5 67.5l30 1770l-712 4c-114.667 0.666992 -184.334 40 -209.001 118
c-4.66699 15.333 -7 33 -7 53c0 42 9.33301 85.667 28 131s40 75.666 64 90.999c0 -21.333 17 -42.333 51 -63c29.333 -18.667 51 -28 65 -28h817c34.667 0 69 -15.333 103 -46c34.667 -32.667 52 -67.334 52 -104.001c0 -40.667 -15.833 -76.167 -47.5 -106.5
s-67.5 -45.5 -107.5 -45.5h-26z" />
    <glyph glyph-name="M" unicode="M" horiz-adv-x="1352" 
d="M1130 1077l4.00293 -1074l-1128 -3l28 840c2 72 23.667 139.667 65 203c31.333 48.667 58.666 71.334 81.999 68.001h65c-18.667 2.66699 -42.334 -24.666 -71.001 -81.999c-32 -66 -48 -129 -48 -189v-569h963l1 704c0 54.667 -9.33301 92.334 -28 113.001
c-13.333 18 -34.666 27.667 -63.999 29c63.333 -2 38.333 -3 -75 -3h-723c-116.667 0 -187.334 39.333 -212.001 118c-5.33301 16.667 -8 34.334 -8 53.001c0 43.333 12.667 87.333 38 132c23.333 41.333 49 70.333 77 87c-6 -34 1.66699 -57.667 23 -71
s44.666 -20 69.999 -20h710c69.333 0 131.333 -34.667 186 -104c30 -38 45 -115.333 45 -232z" />
    <glyph glyph-name="N" unicode="N" horiz-adv-x="811" 
d="M85 1504c0 -7.33301 16.333 -33.6631 49 -78.9961c9.33301 -12.667 49 -22.334 119 -29.001c74.667 -7.33301 121.334 -17.333 140.001 -30c54.667 -36.667 82 -82 82 -136c0 -25.333 -5.66699 -60.333 -17 -105c-9.33301 -34.667 -27.666 -77.5 -54.999 -128.5
s-43 -83.167 -47 -96.5c-16.667 -60 -24.334 -119.667 -23.001 -179l32 -1244c0.666992 -43.333 -5 -91.333 -17 -144c-17.333 -70.667 -41.333 -106 -72 -106c-3.33301 0 -6.66602 0.333008 -9.99902 1c-12.667 0 -18.334 30.333 -17.001 91l34 1402
c1.33301 53.333 14.666 113.666 39.999 180.999c16 43.333 24 75.666 24 96.999c0 25.333 -6.66699 51.333 -20 78c-18.667 38 -54.667 57 -108 57c-6.66699 0 -17.167 -0.333008 -31.5 -1s-25.166 -1 -32.499 -1c-78.667 0 -129.334 42 -152.001 126
c-4.66699 17.333 -7 35.666 -7 54.999c0 79.333 29.667 143 89 191z" />
    <glyph glyph-name="O" unicode="O" 
d="M-502 1627c-58 0.666992 -87 28.667 -87 84c0 52.667 29 79 87 79c56 0 84 -27.333 84 -82s-28 -81.667 -84 -81z" />
    <glyph glyph-name="P" unicode="P" horiz-adv-x="1352" 
d="M156 1008c0 30.667 27.001 63.998 81.001 99.998l99 3h385c127.333 0 214 -36 260 -108c34.667 -54 58.334 -106.333 71.001 -157c10.667 -41.333 17.667 -100 21 -176c0.666992 -18 -2 -118.667 -8 -302c-6 -208.667 -9 -379.667 -9 -513
c0 -414.667 27.667 -622 83 -622c34 0 51 152 51 456c0 263.333 -11.333 595 -34 995c2.66699 207.333 -18.333 366.666 -63 477.999c-66 167.333 -186.333 251 -361 251h-486c-100.667 0 -150.667 30.333 -150 91c-45.333 -25.333 -68 -93.333 -68 -204
c0 -59.333 12 -103 36 -131c22 -26 62 -45.333 120 -58l-55 -66c-66.667 -89.333 -100 -178.666 -100 -267.999c0 -24.667 13.167 -58.167 39.5 -100.5s50.5 -70.833 72.5 -85.5c25.333 -17.333 71.333 -30.333 138 -39c56 -6.66699 105 -9 147 -7
c75.333 4.66699 126.666 19.667 153.999 45c34 30.667 53.333 90.334 58 179.001c0.666992 12 1 23.333 1 34c0 66.667 -14.667 112.334 -44 137.001c-24 20.667 -65 31 -123 31c-17.333 0 -49.333 -1.33301 -96 -4s-84.334 -4 -113.001 -4c-71.333 0 -107 15 -107 45z" />
    <glyph glyph-name="Q" unicode="Q" 
d="M-652 -455c-65.333 2 -117 24 -155 66c-35.333 38.667 -53 84.667 -53 138c0 52.667 17.333 97.334 52 134.001c38 40 90 60 156 60c62.667 0 112.334 -21 149.001 -63c33.333 -38 50 -84.333 50 -139s-16.667 -100.334 -50 -137.001
c-36.667 -41.333 -86.334 -61 -149.001 -59z" />
    <glyph glyph-name="R" unicode="R" 
d="M-652 -455c-65.333 2 -117 24 -155 66c-35.333 38.667 -53 84.667 -53 138c0 52.667 17.333 97.334 52 134.001c38 40 90 60 156 60c62.667 0 112.334 -21 149.001 -63c33.333 -38 50 -84.333 50 -139s-16.667 -100.334 -50 -137.001
c-36.667 -41.333 -86.334 -61 -149.001 -59zM-652 -389c42 -1.33301 75 12 99 40c22.667 24 34 54.333 34 91c0 36 -11.333 66.667 -34 92c-24 28 -57 42 -99 42c-44 0 -78.667 -13.333 -104 -40c-23.333 -24 -35 -53.667 -35 -89s11.667 -66 35 -92
c26 -28 60.667 -42.667 104 -44z" />
    <glyph glyph-name="S" unicode="S" 
d="M-652 1545c-65.333 2 -117 24 -155 66c-35.333 38.667 -53 84.667 -53 138c0 52.667 17.333 97.334 52 134.001c38 40 90 60 156 60c62.667 0 112.334 -21 149.001 -63c33.333 -38 50 -84.333 50 -139s-16.667 -100.334 -50 -137.001
c-36.667 -41.333 -86.334 -61 -149.001 -59z" />
    <glyph glyph-name="T" unicode="T" 
d="M-406 -455c-65.333 2 -117.333 24 -156 66c-34.667 38.667 -52 84.667 -52 138c0 52.667 17.333 97.334 52 134.001c38 40 90 60 156 60c62.667 0 112.334 -21 149.001 -63c33.333 -38 50 -84.333 50 -139s-16.667 -100.334 -50 -137.001
c-36.667 -41.333 -86.334 -61 -149.001 -59zM-406 -389c41.333 -1.33301 74.333 12 99 40c22 24 33 54.333 33 91c0 36 -11 66.667 -33 92c-24.667 28 -57.667 42 -99 42c-44 0 -78.667 -13.333 -104 -40c-23.333 -24 -35 -53.667 -35 -89s11.667 -66 35 -92
c26 -28 60.667 -42.667 104 -44z" />
    <glyph glyph-name="U" unicode="U" 
d="M-483 -357c-45.333 1.33301 -68 24.001 -68 68.001c0 42.667 22.667 64 68 64s68 -22.333 68 -67s-22.667 -66.334 -68 -65.001zM-317 -502.999c-46 1.33301 -69 24.001 -69 68.001c0 43.333 23 65 69 65c44 0 66 -22.667 66 -68c0 -44.667 -22 -66.334 -66 -65.001z
M-150 -648.998c-47.333 1.33301 -71 24.333 -71 69c0 42.667 23.667 64 71 64c44 0 66 -22.333 66 -67s-22 -66.667 -66 -66z" />
    <glyph glyph-name="V" unicode="V" 
d="M-121 -586c-36.667 1.33301 -55 24.001 -55 68.001c0 42.667 18.333 64 55 64c36 0 54 -22.333 54 -67s-18 -66.334 -54 -65.001zM-119 -349.999c-36.667 1.33301 -55 24.333 -55 69c0 42.667 18.333 64 55 64c36 0 54 -22.333 54 -67c0 -45.333 -18 -67.333 -54 -66z
M-494 -349.999c-37.333 1.33301 -56 24.333 -56 69c0 42.667 18.667 64 56 64c35.333 0 53 -22.333 53 -67s-17.667 -66.667 -53 -66zM-298 -349.999c-36.667 1.33301 -55 24.333 -55 69c0 42.667 18.333 64 55 64c36 0 54 -22.333 54 -67c0 -45.333 -18 -67.333 -54 -66z
M-398 -585.999c-37.333 1.33301 -56 24.001 -56 68.001c0 42.667 18.667 64 56 64c35.333 0 53 -22.333 53 -67s-17.667 -66.334 -53 -65.001z" />
    <glyph glyph-name="W" unicode="W" 
d="M-406 -455c-65.333 2 -117.333 24 -156 66c-34.667 38.667 -52 84.667 -52 138c0 52.667 17.333 97.334 52 134.001c38 40 90 60 156 60c62.667 0 112.334 -21 149.001 -63c33.333 -38 50 -84.333 50 -139s-16.667 -100.334 -50 -137.001
c-36.667 -41.333 -86.334 -61 -149.001 -59z" />
    <glyph glyph-name="X" unicode="X" 
d="M-652 1545c-65.333 2 -117 24 -155 66c-35.333 38.667 -53 84.667 -53 138c0 52.667 17.333 97.334 52 134.001c38 40 90 60 156 60c62.667 0 112.334 -21 149.001 -63c33.333 -38 50 -84.333 50 -139s-16.667 -100.334 -50 -137.001
c-36.667 -41.333 -86.334 -61 -149.001 -59zM-652 1611c42 -1.33301 75 12 99 40c22.667 24 34 54.333 34 91c0 36 -11.333 66.667 -34 92c-24 28 -57 42 -99 42c-44 0 -78.667 -13.333 -104 -40c-23.333 -24 -35 -53.667 -35 -89s11.667 -66 35 -92
c26 -28 60.667 -42.667 104 -44z" />
    <glyph glyph-name="Y" unicode="Y" 
d="M-406 1545c-65.333 2 -117.333 24 -156 66c-34.667 38.667 -52 84.667 -52 138c0 52.667 17.333 97.334 52 134.001c38 40 90 60 156 60c62.667 0 112.334 -21 149.001 -63c33.333 -38 50 -84.333 50 -139s-16.667 -100.334 -50 -137.001
c-36.667 -41.333 -86.334 -61 -149.001 -59zM-406 1611c41.333 -1.33301 74.333 12 99 40c22 24 33 54.333 33 91c0 36 -11 66.667 -33 92c-24.667 28 -57.667 42 -99 42c-44 0 -78.667 -13.333 -104 -40c-23.333 -24 -35 -53.667 -35 -89s11.667 -66 35 -92
c26 -28 60.667 -42.667 104 -44z" />
    <glyph glyph-name="Z" unicode="Z" 
d="M-406 1545c-65.333 2 -117.333 24 -156 66c-34.667 38.667 -52 84.667 -52 138c0 52.667 17.333 97.334 52 134.001c38 40 90 60 156 60c62.667 0 112.334 -21 149.001 -63c33.333 -38 50 -84.333 50 -139s-16.667 -100.334 -50 -137.001
c-36.667 -41.333 -86.334 -61 -149.001 -59z" />
    <glyph glyph-name="bracketleft" unicode="[" horiz-adv-x="812" 
d="M605 1590h-432v-1734h426v132h-342v1478h348v124z" />
    <glyph glyph-name="backslash" unicode="\" 
d="M-1099 -616v401h70v-401h-70z" />
    <glyph glyph-name="bracketright" unicode="]" horiz-adv-x="812" 
d="M173 1590h432v-1734h-426v132h342v1478h-348v124z" />
    <glyph glyph-name="asciicircum" unicode="^" 
d="M-698 94c-60.667 -2 -91 25.333 -91 82s28.667 85.667 86 87c56.667 1.33301 85 -26 85 -82s-26.667 -85 -80 -87z" />
    <glyph glyph-name="underscore" unicode="_" horiz-adv-x="1037" 
d="M168 654v96h640v-96h-640z" />
    <glyph glyph-name="grave" unicode="`" horiz-adv-x="811" 
d="M599 1489c6 -10 8.99902 -22.666 8.99902 -37.999c0 -25.333 -7.33301 -56 -22 -92c-22.667 -54.667 -73.167 -124.167 -151.5 -208.5s-130.166 -126.5 -155.499 -126.5c-2 0 -3.66699 0.333008 -5 1c-3.33301 1.33301 -5 5 -5 11c0 25.333 23 81 69 167
c42.667 81.333 82 146.333 118 195c26 36 45.667 59 59 69c22 17.333 50 24.666 84 21.999z" />
    <glyph glyph-name="a" unicode="a" 
d="M-811 -328v108h410v-108h-410z" />
    <glyph glyph-name="b" unicode="b" horiz-adv-x="1352" 
d="M96 1504c0 -4.66699 6.66602 -15 19.999 -31c14.667 -19.333 29.667 -33.666 45 -42.999c18 -11.333 46.333 -17 85 -17h517c102.667 0 181 -33 235 -99c44.667 -55.333 67 -140 67 -254l3 -789h137l-89 -271h-1116l89 271h927l1 653c0 60.667 -19.667 110.667 -59 150
c-24 24 -86.333 36 -187 36h-542c-56 0 -96.667 6.33301 -122 19c-35.333 17.333 -58.666 50.666 -69.999 99.999c-8 34 -12 67.333 -12 100c0 92.667 23.667 151 71 175z" />
    <glyph glyph-name="c" unicode="c" horiz-adv-x="1352" 
d="M839 636c62 -30.667 102.34 -53.6641 121.007 -68.9971c9.33301 -6.66699 41.666 -39.334 96.999 -98.001c41.333 -43.333 69.666 -83.666 84.999 -120.999c16 -39.333 24 -89.666 24 -150.999c0 -36 -10 -77.667 -30 -125c-16 -40 -29 -64 -39 -72h-1097
c77.333 131.333 122.666 221.666 135.999 270.999h788c0 34.667 -6.66699 60.334 -20 77.001c-60.667 76.667 -136 129.667 -226 159c-21.333 7.33301 -92.333 21 -213 41c-72.667 12.667 -121.334 37 -146.001 73c-8.66699 12 -13 39.333 -13 82
c0 22.667 1.83301 64.167 5.5 124.5s5.5 105.166 5.5 134.499c0 59.333 -5.66699 101.333 -17 126c-18 37.333 -52.667 56 -104 56c-6 0 -14.667 -0.333008 -26 -1h-26c-66 0 -110.333 29.667 -133 89c-6 16 -9 34.667 -9 56c0 40 9.66699 81.667 29 125
s41 73.666 65 90.999c0 -13.333 8.66699 -33.333 26 -60c9.33301 -15.333 44.666 -24.833 105.999 -28.5s104 -26.167 128 -67.5c15.333 -26 23.666 -88.333 24.999 -187c-1.33301 131.333 -2 40 -2 -274c0 -25.333 138.333 -101.666 415 -228.999l96 478
c-55.333 22 -88.333 59.667 -99 113c-2 11.333 -3 23.666 -3 36.999c0 43.333 10.667 86.666 32 129.999s46.666 71.666 75.999 84.999c0 -4 6.66699 -21 20 -51c6.66699 -15.333 45 -37.333 115 -66c67.333 -28 108 -66.333 122 -115c6.66699 -22.667 10 -46.667 10 -72
c0 -99.333 -33.667 -165 -101 -197c0 57.333 -41.333 97 -124 119z" />
    <glyph glyph-name="d" unicode="d" horiz-adv-x="1352" 
d="M1024 1110l-0.000976562 -876.001c0 -56 -2.66699 -93 -8 -111c-22.667 -83.333 -48.667 -125 -78 -125c-3.33301 0 -7 0.666992 -11 2c-1.33301 0 -1.33301 30 0 90l21 1020h-704c-118.667 0 -187.667 39.667 -207 119c-7.33301 28 -11 57 -11 87
c0 92 23.333 152.333 70 181c0 -4.66699 5 -13.667 15 -27c12.667 -17.333 26.667 -30.666 42 -39.999c18 -11.333 46 -17 84 -17h792c34.667 0 67.167 -14 97.5 -42s45.5 -60.333 45.5 -97c0 -44 -10.333 -81.667 -31 -113c-23.333 -34 -53.666 -51 -90.999 -51h-26z" />
    <glyph glyph-name="e" unicode="e" 
d="M-795 -322c-45.333 1.33301 -68 24.001 -68 68.001c0 42.667 22.667 64 68 64s68 -22.333 68 -67s-22.667 -66.334 -68 -65.001zM-538 -321.999c-46.667 1.33301 -70 24.001 -70 68.001c0 42.667 23.333 64 70 64c44.667 0 67 -22.333 67 -67
s-22.333 -66.334 -67 -65.001zM-668 -613.998c-45.333 1.33301 -68 24.333 -68 69c0 42.667 22.667 64 68 64c46 0 69 -22.333 69 -67c0 -45.333 -23 -67.333 -69 -66z" />
    <glyph glyph-name="f" unicode="f" 
d="M-911 -328v108h410v-108h-162c2.66699 0 6.66699 -18.667 12 -56c6.66699 -42.667 10 -82.667 10 -120c0 -97.333 -22.333 -146 -67 -146s-67 41.333 -67 124c0 40 5 84.333 15 133c8.66699 43.333 14.667 65 18 65h-169z" />
    <glyph glyph-name="g" unicode="g" horiz-adv-x="811" 
d="M175 1504c0 -2 14.335 -24.666 43.002 -67.999c10 -16 61.5 -27 154.5 -33s150.667 -29.167 173 -69.5s33.5 -117.5 33.5 -231.5v-661c0 -74 7.16699 -147.833 21.5 -221.5l43.5 -219.5c-54.667 0 -86.334 4.66699 -95.001 14c-3.33301 4 -8.33301 30.333 -15 79
c-4 26 -14.667 77.333 -32 154c-16 72 -24 109.333 -24 112h-26l-155 -359h-297c-0.666992 177.333 24.666 267.666 75.999 270.999c30.667 2.66699 131.334 20 302.001 52l61 76c29.333 38 45 69 47 93c4 40 14.333 113.333 31 220c14 86 21 145.333 21 178
c0 16.667 -1.33301 30 -4 40c3.33301 27.333 -6 65 -28 113c-17.333 38 -53.333 57 -108 57c-14.667 0 -38.167 -1.83301 -70.5 -5.5s-55.833 -5.5 -70.5 -5.5c-44.667 0 -76.334 12 -95.001 36c-22.667 30 -34 84.667 -34 164c0 110 15.667 181.667 47 215z" />
    <glyph glyph-name="h" unicode="h" horiz-adv-x="1352" 
d="M1003 1111l13 -862.002c0.666992 -7.33301 3.33398 -22.166 8.00098 -44.499s7 -40.833 7 -55.5c0 -16.667 -2.66699 -32.334 -8 -47.001l-23 -70c-11.333 -25.333 -25.333 -38 -42 -38c-6.66699 0 -14.334 2 -23.001 6c-0.666992 0 -0.666992 30 0 90l15 1021h-704
c-112 0 -181.667 40.333 -209 121c-11.333 32.667 -17 65 -17 97c0 78.667 25.333 137 76 175c0 -5.33301 5 -15.666 15 -30.999c12.667 -19.333 26.667 -33.666 42 -42.999c18 -11.333 46 -17 84 -17h792c32.667 0 58.5 -13.333 77.5 -40s28.5 -59.667 28.5 -99
c0 -108.667 -35.333 -163 -106 -163h-26zM70 51.998c-3.33301 34.667 -4 65.333 -2 92c2 28 3 56.333 3 85c0 22.667 -0.833008 53.834 -2.5 93.501s-2.5 69.5 -2.5 89.5c0 75.333 9 151 27 227c9.33301 37.333 23 71.333 41 102c16 27.333 28.667 41 38 41
c2.66699 -0.666992 4.33398 -2.66699 5.00098 -6c9.33301 -26.667 8.66602 -72.334 -2.00098 -137.001c-22.667 -145.333 -27 -305 -13 -479c3.33301 -34.667 -0.333984 -68.667 -11.001 -102c-13.333 -39.333 -32.666 -59 -57.999 -59c-4 0 -8 0.166992 -12 0.5
s-7.66699 17.833 -11 52.5z" />
    <glyph glyph-name="i" unicode="i" 
d="M-652 -322c-46 1.33301 -69 24.001 -69 68.001c0 42.667 23 64 69 64c44 0 66 -22.333 66 -67s-22 -66.334 -66 -65.001z" />
    <glyph glyph-name="j" unicode="j" 
d="M-529 -596c-36.667 1.33301 -55 24.001 -55 68.001c0 43.333 18.333 65 55 65c35.333 0 53 -22.667 53 -68c0 -44.667 -17.667 -66.334 -53 -65.001zM-533 -356.999c-36.667 1.33301 -55 24.001 -55 68.001c0 42.667 18.333 64 55 64c35.333 0 53 -22.333 53 -67
s-17.667 -66.334 -53 -65.001zM-1001 -327.998v108h328v-108h-328z" />
    <glyph glyph-name="k" unicode="k" horiz-adv-x="1352" 
d="M96 1504c0 -4 7.00098 -14.334 21.001 -31.001c16 -19.333 31.667 -33.666 47 -42.999c18 -11.333 46.333 -17 85 -17h619c116.667 0 197.667 -46.333 243 -139c33.333 -67.333 50 -172 50 -314c0 -28.667 -0.833008 -71.5 -2.5 -128.5s-2.5 -98.5 -2.5 -124.5
c0 -32.667 1.5 -84.5 4.5 -155.5s4.5 -123.833 4.5 -158.5c0 -124 -15.333 -215.667 -46 -275c-40.667 -78.667 -112.334 -118 -215.001 -118h-918l90 271h806c85.333 0 142 20.667 170 62c22.667 32.667 34 95 34 187c0 16.667 -0.5 46 -1.5 88s-1.5 75.667 -1.5 101
c0 175.333 -6.66699 279.333 -20 312c-24 60 -93 90 -207 90h-653c-92 0 -147.333 39.333 -166 118c-8 34.667 -12 68 -12 100c0 86.667 23.667 145 71 175z" />
    <glyph glyph-name="l" unicode="l" horiz-adv-x="1352" 
d="M397 1579l-0.00195312 -163.999l657 -2c47.333 0 85 -17 113 -51c22.667 -26.667 35 -61.334 37 -104.001l26 -512c3.33301 -68.667 -58 -170 -184 -304l-290 -282c-37.333 -37.333 -60.333 -79 -69 -125c-4 -23.333 -28.333 -35 -73 -35c-42.667 -0 -64 11.333 -64 34
c0 26.667 28.333 68.334 85 125.001l121 112l263 227c103.333 98 151 180.667 143 248l-34 283c-2.66699 19.333 -14 39 -34 59c-18 15.333 -39.667 23 -65 23l-759 1c-12 0 -17 29.667 -15 89l17 480c1.33301 41.333 15.333 76.5 42 105.5s40 56.5 40 82.5
c0 9.33301 -0.666992 19.333 -2 30c-2.66699 16 -13.167 27.667 -31.5 35s-30.166 23 -35.499 47c-1.33301 4.66699 -2 9.66699 -2 15c0 39.333 15.333 59.333 46 59.999c34.667 1.33301 61.334 -11.334 80.001 -38.001l47 -89c6 -11.333 9 -21.666 9 -30.999
c0 0.666992 -11.333 -28.333 -34 -87s-34 -136 -34 -232z" />
    <glyph glyph-name="m" unicode="m" horiz-adv-x="1352" 
d="M1054 0l-839.001 0.00390625c0 -1.33301 27.333 42.5 82 131.5s83 135.5 85 139.5h717l7 305c3.33301 141.333 -38.334 262.333 -125.001 363c-96.667 112.667 -228.334 170 -395.001 172c-142.667 2 -261.667 -56.333 -357 -175
c-64 -79.333 -106.333 -165.333 -127 -258c-13.333 -57.333 -20 -107.333 -20 -150c0 -28.667 3.66699 -66 11 -112c9.33301 -56.667 15.333 -102.334 18 -137.001c3.33301 -40.667 5 -76.667 5 -108c0 -111.333 -19 -168.333 -57 -171
c-5.33301 0 -12.666 11.333 -21.999 34c-10.667 25.333 -15.667 50 -15 74c2 52.667 -1.33301 118.334 -10 197.001c-9.33301 86 -14 148 -14 186c0 62.667 7.33301 125 22 187c33.333 143.333 67.666 245 102.999 305c14.667 24.667 43 55 85 91
c-12 17.333 -39.667 39.666 -83 66.999c-40.667 25.333 -70 54.666 -88 87.999c-10.667 20 -16 46 -16 78c0 39.333 7.33301 78.666 22 117.999s32.334 66 53.001 80c0 -3.33301 8.33301 -15 25 -35c18.667 -22 29.334 -35.333 32.001 -40c8 -14.667 41.667 -27 101 -37
c62 -10.667 101.667 -27.667 119 -51c21.333 -27.333 37.333 -63 48 -107c5.33301 -26.667 11 -53 17 -79c0.666992 -2.66699 3 -4 7 -4c10.667 0 31 8.66699 61 26c50 29.333 92.333 77.333 127 144c30.667 60.667 44.667 91 42 91
c196 -18.667 331.333 -81.334 406 -188.001c56 -80 84 -200 84 -360c0 -34.667 -1.5 -87.334 -4.5 -158.001s-4.5 -123.667 -4.5 -159c-2.66699 -71.333 -2.66699 -184.333 0 -339c0.666992 -13.333 -15.666 -50.666 -48.999 -111.999c-35.333 -64 -53 -96.333 -53 -97z" />
    <glyph glyph-name="n" unicode="n" horiz-adv-x="811" 
d="M96 1504c0 -3.33301 5.66602 -11.333 16.999 -24c14.667 -16.667 25 -29.667 31 -39c9.33301 -14 37 -22 83 -24h96c92 -2 147.667 -24.667 167 -68c24 -54.667 36 -137 36 -247c4.66699 -31.333 5 -325.333 1 -882c0 -2.66699 -19.667 -40.667 -59 -114l-53 -106h-429
l138 271h325l40 676c2 30 -7.33301 67.667 -28 113c-17.333 38 -62 57 -134 57c-10.667 0 -27 -0.333008 -49 -1s-38.333 -1 -49 -1c-77.333 0 -126.666 21 -147.999 63c-17.333 34.667 -26 84.667 -26 150c0 88 13.667 146.667 41 176z" />
    <glyph glyph-name="o" unicode="o" 
d="M-1292 1627c-58 0.666992 -87 28.667 -87 84c0 52.667 29 79 87 79c56 0 84 -27.333 84 -82s-28 -81.667 -84 -81z" />
    <glyph glyph-name="p" unicode="p" horiz-adv-x="1352" 
d="M156 1008c0 30.667 27.001 63.9971 81.001 99.9971l99 3h385c127.333 0 214 -36 260 -108c66.667 -104.667 102.334 -213 107.001 -325l17 -407h-1003l-88 -271h1049l93 271v413c0 210 -21.333 369.333 -64 478c-65.333 167.333 -185.333 251 -360 251h-486
c-100.667 0 -150.667 30.333 -150 91c-45.333 -25.333 -68 -93.333 -68 -204c0 -59.333 12 -103 36 -131c22 -26 62 -45.333 120 -58l-55 -66c-66.667 -89.333 -100 -178.666 -100 -267.999c0 -24.667 13.167 -58.167 39.5 -100.5s50.5 -70.833 72.5 -85.5
c25.333 -17.333 71.333 -30.333 138 -39c56 -6.66699 105 -9 147 -7c75.333 4.66699 126.666 19.667 153.999 45c34 30.667 53.333 90.334 58 179.001c0.666992 12 1 23.333 1 34c0 66.667 -14.667 112.334 -44 137.001c-24 20.667 -65 31 -123 31
c-17.333 0 -49.333 -1.33301 -96 -4s-84.334 -4 -113.001 -4c-71.333 0 -107 15 -107 45z" />
    <glyph glyph-name="q" unicode="q" horiz-adv-x="1352" 
d="M96 1504c0 -4.66699 6.66602 -14.998 19.999 -30.998c14.667 -19.333 29.667 -33.666 45 -42.999c18 -11.333 46.333 -17 85 -17h486c128 0 217.833 -18.333 269.5 -55s87.5 -107.667 107.5 -213c10.667 -54.667 26.334 -200.667 47.001 -438
c1.33301 -18.667 2 -36.334 2 -53.001c0 -86 -21 -157.333 -63 -214c-33.333 -44.667 -86.333 -87.334 -159 -128.001l-209 -107l-277 -155c-65.333 -34.667 -112.666 -51.334 -141.999 -50.001c-6.66699 -0 -10 2.33301 -10 7c0 15.333 46 54.333 138 117
c86.667 59.333 186.334 121 299.001 185l169 83c62 31.333 107 64.333 135 99c36 46.667 53.333 107.334 52 182.001c-2.66699 196 -29.334 320.333 -80.001 373c-42 43.333 -138.667 65 -290 65h-518c-57.333 0 -97 4 -119 12
c-18.667 7.33301 -30.334 20.666 -35.001 39.999l-12 69c-8 34 -12 67 -12 99c0 85.333 23.667 143 71 173zM-0.000976562 -771.998c-0.666992 1.33301 -0.999023 3.99902 -0.999023 7.99902c0 4.66699 4 48.334 12 131.001s11.667 146.667 11 192
c-6 422 -8.66699 781 -8 1077c0 56 8 112 24 168c15.333 52 28.666 78 39.999 78c1.33301 0 2.33301 -0.333008 3 -1c25.333 -25.333 38 -75 38 -149c0 -23.333 -2 -47 -6 -71c-5.33301 -33.333 -8 -82.333 -8 -147c0 -75.333 5.33301 -212 16 -410s16 -335.667 16 -413
c0 -43.333 -1.33301 -80 -4 -110c-10 -132.667 -17.333 -207.667 -22 -225c-15.333 -57.333 -52.333 -100 -111 -128z" />
    <glyph glyph-name="r" unicode="r" horiz-adv-x="1352" 
d="M1119 1102c16 -369.333 24 -613.334 24 -732.001c0 -106 -2.33301 -195.333 -7 -268c0.666992 -23.333 1 -46.333 1 -69c-1.33301 -24 -9 -36 -23 -36c-4.66699 0 -9.66699 1 -15 3c-4.66699 0 -15.334 10.333 -32.001 31c-18.667 24 -27.667 43.667 -27 59l28 667
c4.66699 108.667 -5 207 -29 295c-11.333 42 -38.333 63 -81 63c-8 0 -28.167 -0.666992 -60.5 -2s-61.166 -2 -86.499 -2h-565c-124 0 -193.667 39.333 -209 118c-6 29.333 -9 59.333 -9 90c0 96 22.667 157.667 68 185c0 -4 7 -14.333 21 -31
c16 -19.333 31.667 -33.666 47 -42.999c18 -11.333 42.333 -17 73 -17h574c111.333 0 194.333 -34.667 249 -104c35.333 -46 55 -115 59 -207z" />
    <glyph glyph-name="s" unicode="s" horiz-adv-x="1352" 
d="M89 710c0 -157.333 13.999 -265.666 41.999 -324.999c36 -76 106.333 -114 211 -114h396h57c24.667 -0.666992 42.667 -1 54 -1c94.667 0 160.334 22.667 197.001 68c50.667 62 76 185 76 369c0 153.333 -17.333 257.666 -52 312.999c-38 60.667 -111 91 -219 91h-648
l-58 -101c-37.333 -72 -56 -172 -56 -300zM95.999 1504c0 -4.66699 6.66699 -15.0029 20 -31.0029c14.667 -19.333 29.667 -33.666 45 -42.999c18 -11.333 46.333 -17 85 -17h616c128 0 215.667 -55.333 263 -166c32.667 -76.667 49 -196.667 49 -360v-92
c-0.666992 -39.333 -1 -68.666 -1 -87.999c0 -471.333 -145 -707 -435 -707h-396c-111.333 0 -192.333 32.333 -243 97c-42 54 -67.667 138.667 -77 254c-3.33301 40.667 -5 159.334 -5 356.001c0 168.667 40 304.334 120 407.001c-48.667 7.33301 -82 45.666 -100 114.999
c-6 22 -9 47.333 -9 76c0 106.667 22.667 173 68 199z" />
    <glyph glyph-name="t" unicode="t" horiz-adv-x="1352" 
d="M1130 1102l37.002 -853.001c7.33301 -166.667 -9.66699 -250 -51 -250c-2.66699 0 -5.33398 0.333008 -8.00098 1c-4.66699 0 -15 10.333 -31 31c-18 24 -26.667 43.667 -26 59l40 885c2 52 -7.33301 89.667 -28 113c-10 13.333 -23.333 21.666 -40 24.999
c-12.667 2.66699 -29.334 3 -50.001 1c-29.333 -2 -45.666 -3 -48.999 -3h-740c-24 -59.333 -37.667 -95 -41 -107c-23.333 -84.667 -33.333 -179 -30 -283c2 -55.333 42 -132.5 120 -231.5s117 -176.5 117 -232.5c0 -60 -14.667 -116 -44 -168
c-33.333 -59.333 -76 -89 -128 -89h-178c-6 6 -6 49 0 129c6.66699 84.667 19 132.334 37 143.001c20.667 12 65.667 9.33301 135 -8c-45.333 80.667 -74.333 135.667 -87 165c-38.667 90 -58 176 -58 258c0 11.333 0.333008 22.666 1 33.999
c6.66699 96.667 15.667 165.667 27 207c15.333 59.333 46 120.333 92 183c-47.333 0 -84 39.333 -110 118c-10 30 -15 62.333 -15 97c0 96.667 24.667 156 74 178c0 -5.33301 5 -15.666 15 -30.999c12.667 -19.333 26.667 -33.666 42 -42.999c18 -11.333 46 -17 84 -17h585
c94.667 0 155 -5 181 -15c21.333 -8 48.666 -34 81.999 -78c20 -26 32.667 -58.667 38 -98c2 -12.667 4.33301 -52.667 7 -120z" />
    <glyph glyph-name="u" unicode="u" 
d="M-829 -357c-45.333 1.33301 -68 24.001 -68 68.001c0 42.667 22.667 64 68 64s68 -22.333 68 -67s-22.667 -66.334 -68 -65.001zM-663 -502.999c-46 1.33301 -69 24.001 -69 68.001c0 43.333 23 65 69 65c44.667 0 67 -22.667 67 -68
c0 -44.667 -22.333 -66.334 -67 -65.001zM-496 -648.998c-46.667 1.33301 -70 24.333 -70 69c0 42.667 23.333 64 70 64c44 0 66 -22.333 66 -67s-22 -66.667 -66 -66z" />
    <glyph glyph-name="v" unicode="v" 
d="M-467 -586c-36.667 1.33301 -55 24.001 -55 68.001c0 42.667 18.333 64 55 64s55 -22.333 55 -67s-18.333 -66.334 -55 -65.001zM-465 -349.999c-36.667 1.33301 -55 24.333 -55 69c0 42.667 18.333 64 55 64c36 0 54 -22.333 54 -67c0 -45.333 -18 -67.333 -54 -66z
M-840 -349.999c-37.333 1.33301 -56 24.333 -56 69c0 42.667 18.667 64 56 64c35.333 0 53 -22.333 53 -67s-17.667 -66.667 -53 -66zM-644 -349.999c-36.667 1.33301 -55 24.333 -55 69c0 42.667 18.333 64 55 64s55 -22.333 55 -67c0 -45.333 -18.333 -67.333 -55 -66z
M-744 -585.999c-37.333 1.33301 -56 24.001 -56 68.001c0 42.667 18.667 64 56 64c35.333 0 53 -22.333 53 -67s-17.667 -66.334 -53 -65.001z" />
    <glyph glyph-name="w" unicode="w" horiz-adv-x="811" 
d="M500 1102l25.998 -852.998c0.666992 -36 -4 -84.333 -14 -145c-12 -76 -27.333 -110.667 -46 -104c-2 0 -8.5 12.833 -19.5 38.5s-16.5 46.5 -16.5 62.5l19 818c0.666992 23.333 -2.66602 41.666 -9.99902 54.999l-31 48c-34.667 65.333 -87.667 98 -159 98
c-10 0 -24.833 -0.666992 -44.5 -2s-34.167 -2 -43.5 -2c-67.333 0 -115 33.667 -143 101c-6 14.667 -9 32.334 -9 53.001c0 39.333 10.667 84.666 32 135.999c18 43.333 36.333 76 55 98c5.33301 -16.667 11 -33.334 17 -50.001c14 -26 37.667 -39.667 71 -41
c42.667 0 85.334 0.333008 128.001 1c36 -1.33301 78 -10.666 126 -27.999c34.667 -12.667 55 -52.667 61 -120c0 -54.667 0.333008 -109.334 1 -164.001z" />
    <glyph glyph-name="x" unicode="x" horiz-adv-x="1352" 
d="M99 924c0.666992 40 39.332 102.333 115.999 187c-94 0 -148.667 37 -164 111c-9.33301 43.333 -14 83.666 -14 120.999c0 80.667 19.667 134.334 59 161.001c7.33301 -17.333 26.333 -42 57 -74c18 -11.333 46 -17 84 -17h792c32.667 0 58.5 -13.333 77.5 -40
s28.5 -59.667 28.5 -99c0 -108.667 -35.333 -163 -106 -163h-26l28 -869c1.33301 -39.333 -1.33398 -86 -8.00098 -140c-8.66699 -72 -28.667 -108 -60 -108c-5.33301 0 -10.666 2 -15.999 6c-13.333 37.333 -20 67.333 -20 90v1020l-667 1
c-50.667 -80.667 -76 -143 -76 -187l1 -786c0 -93.333 -19.667 -140 -59 -140c-6 0 -12.333 0.666992 -19 2c-13.333 64.667 -19.666 115.667 -18.999 153z" />
    <glyph glyph-name="y" unicode="y" horiz-adv-x="811" 
d="M96 1504c0 -3.33301 16.999 -24.334 50.999 -63.001c12.667 -14 39.334 -21 80.001 -21c12.667 0 33 0.833008 61 2.5s49 2.5 63 2.5c46 0 77.333 -8 94 -24c42.667 -40.667 64 -88.334 64 -143.001c0 11.333 -5.66699 -35 -17 -139
c-9.33301 -82 -24.666 -168 -45.999 -258c-22.667 -93.333 -40.334 -138.666 -53.001 -135.999c-0.666992 0 1.33301 17 6 51c6.66699 44.667 10 83.667 10 117c0 68.667 -12.667 121.667 -38 159c-32 46.667 -76 70 -132 70c-8.66699 0 -21.667 -0.666992 -39 -2
s-30 -2 -38 -2c-62 0 -106.333 35.333 -133 106c-6 15.333 -9 34 -9 56c0 39.333 7.83301 81.333 23.5 126s33.167 77.334 52.5 98.001z" />
    <glyph glyph-name="z" unicode="z" horiz-adv-x="811" 
d="M416 1118c-20.667 -29.333 -45.668 -81.334 -75.001 -156.001c-4 -23.333 -6 -48.333 -6 -75c0 -52.667 13.167 -139.5 39.5 -260.5s39.5 -214.167 39.5 -279.5c0 -74.667 -12.667 -143.334 -38 -206.001l-31 -102c-8.66699 -27.333 -22.334 -41 -41.001 -41
c-4.66699 0 -10 0.666992 -16 2c-38 52.667 -57 97.334 -57 134.001c0 8 1.33301 15 4 21c23.333 76 35 161.667 35 257c0 38 -2.33301 94.167 -7 168.5s-7 130.5 -7 168.5c0 78.667 7.66699 149.667 23 213c5.33301 22 20.333 49 45 81l60 78
c-6.66699 0 -20.5 -0.333008 -41.5 -1s-37.833 -1 -50.5 -1c-131.333 0 -209.666 46.333 -234.999 139c-9.33301 33.333 -14 66 -14 98c0 66.667 17.667 116 53 148c0 -3.33301 10 -13.666 30 -30.999c22.667 -20 37.334 -34.333 44.001 -43
c8.66699 -12 60.334 -19 155.001 -21c98 -2 155.333 -9.66699 172 -23c53.333 -42 80 -95 80 -159c0 -30 -5.66699 -67.667 -17 -113c-38.667 -38 -68.334 -57 -89.001 -57c-14 0 -25 7.66699 -33 23c-5.33301 9.33301 -8 17.333 -8 24c0 12 4.66699 17.667 14 17
c-4 -2 -13.333 -3 -28 -3z" />
    <glyph glyph-name="braceleft" unicode="{" 
d="M-1249 1773v-99h964v99h-964z" />
    <glyph glyph-name="bar" unicode="|" 
d="M-742 -616v400h65v-400h-65z" />
    <glyph glyph-name="braceright" unicode="}" 
d="M-772 1775v-102l487 1v99z" />
    <glyph glyph-name="asciitilde" unicode="~" horiz-adv-x="811" 
d="M421 1489c6 -10 9 -22.666 9 -37.999c0 -25.333 -7.33301 -56 -22 -92c-22 -54.667 -72.333 -124.167 -151 -208.5s-130.334 -126.5 -155.001 -126.5c-2.66699 0 -5 0.5 -7 1.5s-3 4.5 -3 10.5c0 25.333 22.667 81 68 167c42.667 81.333 82 146.333 118 195
c26.667 36 46.334 59 59.001 69c22.667 17.333 50.667 24.666 84 21.999zM699 1489c6 -10 8.99902 -22.666 8.99902 -37.999c0 -25.333 -7.33301 -56 -22 -92c-22.667 -54.667 -73.167 -124.167 -151.5 -208.5s-130.166 -126.5 -155.499 -126.5c-2 0 -3.66699 0.333008 -5 1
c-3.33301 1.33301 -5 5 -5 11c0 25.333 23 81 69 167c42.667 81.333 82 146.333 118 195c26 36 45.667 59 59 69c22 17.333 50 24.666 84 21.999z" />
    <glyph glyph-name="nonbreakingspace" unicode="&#xa0;" horiz-adv-x="716" 
 />
    <glyph glyph-name=".null" 
 />
    <glyph glyph-name="nonmarkingreturn" horiz-adv-x="716" 
 />
  </font>
</defs>
</svg>
